nColumns=19
nRows=74
DataType=double
version=3
OpenSimVersion=4.1
endheader
time	ground_force_calcn_r_vx	ground_force_calcn_r_vy	ground_force_calcn_r_vz	ground_force_calcn_r_px	ground_force_calcn_r_py	ground_force_calcn_r_pz	ground_force_calcn_r_mx	ground_force_calcn_r_my	ground_force_calcn_r_mz	ground_force_calcn_l_vx	ground_force_calcn_l_vy	ground_force_calcn_l_vz	ground_force_calcn_l_px	ground_force_calcn_l_py	ground_force_calcn_l_pz	ground_force_calcn_l_mx	ground_force_calcn_l_my	ground_force_calcn_l_mz
0.03	121.887	103.478	-20.4382	0.493065	0	-0.332598	2.14907	1.8245	-0.360361	0	0	0	0	0	0	0	0	0
0.04	60.7568	57.4385	-11.9589	0.439571	0	-0.327406	0.668565	0.632051	-0.131595	0	0	0	0	0	0	0	0	0
0.05	0	0	0	0	0	0	0	0	0	0	0	0	0	0	0	0	0	0
0.06	0	0	0	0	0	0	0	0	0	0	0	0	0	0	0	0	0	0
0.07	0	0	0	0	0	0	0	0	0	0	0	0	0	0	0	0	0	0
0.08	0	0	0	0	0	0	0	0	0	0	0	0	0	0	0	0	0	0
0.09	0	0	0	0	0	0	0	0	0	0	0	0	0	0	0	0	0	0
0.1	0	0	0	0	0	0	0	0	0	0	0	0	0	0	0	0	0	0
0.11	0	0	0	0	0	0	0	0	0	0	0	0	0	0	0	0	0	0
0.12	0	0	0	0	0	0	0	0	0	0	0	0	0	0	0	0	0	0
0.13	-18.9432	69.2068	-1.41039	1.50753	0	0.178905	0.171907	-0.628042	0.0127991	0	0	0	0	0	0	0	0	0
0.14	-37.1781	205.258	-11.6635	0.904051	0	-0.230591	-0.118634	0.654966	-0.0372177	0	0	0	0	0	0	0	0	0
0.15	-57.4623	476.297	-26.5652	0.882814	0	-0.23716	-0.165076	1.36829	-0.0763158	0	0	0	0	0	0	0	0	0
0.16	-89.6314	828.798	-29.3445	0.870763	0	-0.238052	-0.152715	1.41212	-0.0499977	0	0	0	0	0	0	0	0	0
0.17	-150.243	1103.81	-15.0718	0.860062	0	-0.237243	-0.0969587	0.712336	-0.00972649	0	0	0	0	0	0	0	0	0
0.18	-223.419	1236.26	-9.98205	0.845987	0	-0.235283	0.0915183	-0.506406	0.00408891	0	0	0	0	0	0	0	0	0
0.19	-266.662	1321.55	-38.3962	0.823659	0	-0.232428	0.366757	-1.81762	0.0528088	0	0	0	0	0	0	0	0	0
0.2	-252.688	1430.35	-69.1093	0.790964	0	-0.229135	0.519603	-2.94122	0.142109	0	0	0	0	0	0	0	0	0
0.21	-202.208	1542.43	-71.4386	0.750772	0	-0.225932	0.483082	-3.68492	0.170669	0	0	0	0	0	0	0	0	0
0.22	-138.07	1614.73	-73.7547	0.707815	0	-0.223266	0.326098	-3.81371	0.174195	0	0	0	0	0	0	0	0	0
0.23	-64.1483	1634.74	-94.1647	0.664729	0	-0.221341	0.129175	-3.29187	0.189619	0	0	0	0	0	0	0	0	0
0.24	14.6263	1606.63	-102.125	0.621792	0	-0.220148	-0.0239481	-2.63058	0.167213	0	0	0	0	0	0	0	0	0
0.25	92.5984	1530.1	-83.8806	0.578478	0	-0.219747	-0.163799	-2.70662	0.148378	0	0	0	0	0	0	0	0	0
0.26	164.343	1399.7	-59.9816	0.534604	0	-0.22032	-0.465381	-3.96365	0.169854	0	0	0	0	0	0	0	0	0
0.27	219.756	1215.64	-37.3516	0.490564	0	-0.221917	-1.04764	-5.79531	0.178066	0	0	0	0	0	0	0	0	0
0.28	247.85	991.527	-13.8142	0.446799	0	-0.224181	-1.71969	-6.87964	0.0958488	0	0	0	0	0	0	0	0	0
0.29	242.181	747.988	3.027	0.4026	0	-0.226244	-2.05308	-6.34103	-0.0256612	0	0	0	0	0	0	0	0	0
0.3	208.173	507.805	9.93927	0.354733	0	-0.22691	-1.9086	-4.65573	-0.0911266	0	0	0	0	0	0	0	0	0
0.31	159.906	299.933	10.0258	0.296117	0	-0.224805	-1.7383	-3.2605	-0.108988	0	0	0	0	0	0	0	0	0
0.32	103.981	149.756	4.92752	0.214088	0	-0.21624	-2.11207	-3.04184	-0.100088	0	0	0	0	0	0	0	0	0
0.33	48.4474	65.6804	0.637749	0.121715	0	-0.14326	-2.79352	-3.7872	-0.0367732	0	0	0	0	0	0	0	0	0
0.34	0	0	0	0	0	0	0	0	0	0	0	0	0	0	0	0	0	0
0.35	0	0	0	0	0	0	0	0	0	0	0	0	0	0	0	0	0	0
0.36	0	0	0	0	0	0	0	0	0	0	0	0	0	0	0	0	0	0
0.37	0	0	0	0	0	0	0	0	0	0	0	0	0	0	0	0	0	0
0.38	0	0	0	0	0	0	0	0	0	0	0	0	0	0	0	0	0	0
0.39	0	0	0	0	0	0	0	0	0	0	0	0	0	0	0	0	0	0
0.4	0	0	0	0	0	0	0	0	0	0	0	0	0	0	0	0	0	0
0.41	0	0	0	0	0	0	0	0	0	-16.9342	54.6183	-7.29294	6.04235	0	1.72251	-0.227031	0.732249	-0.0977739
0.42	0	0	0	0	0	0	0	0	0	-29.6061	162.515	-16.0269	0.929105	0	-0.318441	0.219051	-1.20242	0.118581
0.43	0	0	0	0	0	0	0	0	0	-33.6139	381.464	-16.0715	0.905361	0	-0.323123	0.182574	-2.07193	0.0872928
0.44	0	0	0	0	0	0	0	0	0	-44.266	677.097	-0.580879	0.893779	0	-0.325102	0.122472	-1.87334	0.00160713
0.45	0	0	0	0	0	0	0	0	0	-92.2769	927.076	22.6111	0.88482	0	-0.327383	0.141394	-1.42054	-0.0346465
0.46	0	0	0	0	0	0	0	0	0	-166.483	1064.44	31.6134	0.872947	0	-0.330725	0.1816	-1.1611	-0.034484
0.47	0	0	0	0	0	0	0	0	0	-224.665	1169.99	21.444	0.852143	0	-0.334793	0.212548	-1.10689	-0.0202875
0.48	0	0	0	0	0	0	0	0	0	-232.881	1316.14	30.9168	0.819943	0	-0.338523	0.194946	-1.10175	-0.0258806
0.49	0	0	0	0	0	0	0	0	0	-195.869	1480.85	67.9104	0.780331	0	-0.341176	0.128123	-0.96866	-0.0444217
0.5	0	0	0	0	0	0	0	0	0	-139.999	1608.6	89.7665	0.739492	0	-0.342813	0.0593069	-0.681443	-0.0380273
0.51	0	0	0	0	0	0	0	0	0	-77.2343	1671.88	81.8008	0.70051	0	-0.343635	0.0245956	-0.532417	-0.0260498
0.52	0	0	0	0	0	0	0	0	0	-13.9426	1671.25	70.1258	0.662898	0	-0.343581	0.00776726	-0.931034	-0.0390662
0.53	0	0	0	0	0	0	0	0	0	46.6332	1610.22	64.4333	0.624462	0	-0.342534	-0.0517508	-1.78693	-0.0715043
0.54	0	0	0	0	0	0	0	0	0	108.328	1485.12	48.4024	0.582979	0	-0.340538	-0.162836	-2.23241	-0.0727575
0.55	0	0	0	0	0	0	0	0	0	173.133	1298.07	18.2689	0.537659	0	-0.337728	-0.181019	-1.3572	-0.0191011
0.56	0	0	0	0	0	0	0	0	0	225.571	1072.72	-12.4929	0.490209	0	-0.334131	0.14708	0.699449	-0.00814579
0.57	0	0	0	0	0	0	0	0	0	240.471	836.336	-28.8078	0.443927	0	-0.329823	0.786481	2.73531	-0.0942182
0.58	0	0	0	0	0	0	0	0	0	219.054	604.679	-28.6833	0.400837	0	-0.325207	1.32468	3.65665	-0.173456
0.59	0	0	0	0	0	0	0	0	0	179.428	395.054	-23.3255	0.358561	0	-0.320845	1.43395	3.15718	-0.186412
0.6	0	0	0	0	0	0	0	0	0	130.277	222.542	-19.1284	0.306119	0	-0.317664	0.925369	1.58074	-0.135871
0.61	0	0	0	0	0	0	0	0	0	76.1375	101.495	-14.1569	0.214267	0	-0.315863	-0.194885	-0.259791	0.0362367
0.62	0	0	0	0	0	0	0	0	0	0	0	0	0	0	0	0	0	0
0.63	0	0	0	0	0	0	0	0	0	0	0	0	0	0	0	0	0	0
0.64	0	0	0	0	0	0	0	0	0	0	0	0	0	0	0	0	0	0
0.65	0	0	0	0	0	0	0	0	0	0	0	0	0	0	0	0	0	0
0.66	0	0	0	0	0	0	0	0	0	0	0	0	0	0	0	0	0	0
0.67	0	0	0	0	0	0	0	0	0	0	0	0	0	0	0	0	0	0
0.68	0	0	0	0	0	0	0	0	0	0	0	0	0	0	0	0	0	0
0.69	0	0	0	0	0	0	0	0	0	0	0	0	0	0	0	0	0	0
0.7	-43.705	118.909	-2.48858	0.953439	0	-0.230681	0.0664919	-0.180906	0.00378608	0	0	0	0	0	0	0	0	0
0.71	-60.1542	302.769	-2.90396	0.910799	0	-0.250268	0.0500327	-0.251825	0.00241535	0	0	0	0	0	0	0	0	0
0.72	-68.6393	602.614	1.58022	0.895451	0	-0.253599	-0.0696346	0.611351	0.00160313	0	0	0	0	0	0	0	0	0
0.73	-91.9887	911.102	13.1275	0.885238	0	-0.254036	-0.180364	1.78642	0.0257394	0	0	0	0	0	0	0	0	0
0.74	-150.459	1114.9	18.3243	0.874173	0	-0.253425	-0.323104	2.39419	0.0393507	0	0	0	0	0	0	0	0	0
0.75	-212.782	1245.93	-6.02889	0.856842	0	-0.252066	-0.366739	2.14741	-0.010391	0	0	0	0	0	0	0	0	0
0.76	-226.115	1369.71	-44.6991	0.829089	0	-0.250029	-0.218937	1.32623	-0.0432801	0	0	0	0	0	0	0	0	0
